<svg width="4" height="6" viewBox="0 0 4 6" fill="none" xmlns="http://www.w3.org/2000/svg">
<path d="M3.86971 2.73675C3.86491 2.733 3.85851 2.7315 3.85371 2.72775L0.768022 0.10968C0.594417 -0.0365601 0.312809 -0.0365601 0.139204 0.10968C0.137603 0.11118 0.136804 0.112679 0.136003 0.11418C0.050915 0.180039 0.00115058 0.277728 -2.45607e-07 0.381161L-1.66955e-08 5.61805C0.00181587 5.7234 0.0533882 5.82256 0.140804 5.88878L0.139204 5.89028C0.319763 6.03657 0.587464 6.03657 0.768022 5.89028L3.86971 3.26621C3.95238 3.2001 4 3.10335 4 3.00148C4 2.89961 3.95238 2.80286 3.86971 2.73675Z" fill="#012F3C"/>
</svg>
